<svg width="181" height="46" viewBox="0 0 181 46" fill="none" xmlns="http://www.w3.org/2000/svg">
<rect width="181" height="46" rx="10" fill="white"/>
<path d="M79.665 26.138H75.773L75.129 28H73.071L76.585 18.214H78.867L82.381 28H80.309L79.665 26.138ZM79.133 24.57L77.719 20.482L76.305 24.57H79.133ZM85.6545 21.364C85.9065 21.0093 86.2518 20.7153 86.6905 20.482C87.1385 20.2393 87.6472 20.118 88.2165 20.118C88.8792 20.118 89.4765 20.2813 90.0085 20.608C90.5498 20.9347 90.9745 21.4013 91.2825 22.008C91.5998 22.6053 91.7585 23.3007 91.7585 24.094C91.7585 24.8873 91.5998 25.592 91.2825 26.208C90.9745 26.8147 90.5498 27.286 90.0085 27.622C89.4765 27.958 88.8792 28.126 88.2165 28.126C87.6472 28.126 87.1432 28.0093 86.7045 27.776C86.2752 27.5427 85.9252 27.2487 85.6545 26.894V31.696H83.6945V20.244H85.6545V21.364ZM89.7565 24.094C89.7565 23.6273 89.6585 23.226 89.4625 22.89C89.2758 22.5447 89.0238 22.2833 88.7065 22.106C88.3985 21.9287 88.0625 21.84 87.6985 21.84C87.3438 21.84 87.0078 21.9333 86.6905 22.12C86.3825 22.2973 86.1305 22.5587 85.9345 22.904C85.7478 23.2493 85.6545 23.6553 85.6545 24.122C85.6545 24.5887 85.7478 24.9947 85.9345 25.34C86.1305 25.6853 86.3825 25.9513 86.6905 26.138C87.0078 26.3153 87.3438 26.404 87.6985 26.404C88.0625 26.404 88.3985 26.3107 88.7065 26.124C89.0238 25.9373 89.2758 25.6713 89.4625 25.326C89.6585 24.9807 89.7565 24.57 89.7565 24.094ZM95.1428 21.364C95.3948 21.0093 95.7401 20.7153 96.1788 20.482C96.6268 20.2393 97.1355 20.118 97.7048 20.118C98.3675 20.118 98.9648 20.2813 99.4968 20.608C100.038 20.9347 100.463 21.4013 100.771 22.008C101.088 22.6053 101.247 23.3007 101.247 24.094C101.247 24.8873 101.088 25.592 100.771 26.208C100.463 26.8147 100.038 27.286 99.4968 27.622C98.9648 27.958 98.3675 28.126 97.7048 28.126C97.1355 28.126 96.6315 28.0093 96.1928 27.776C95.7635 27.5427 95.4135 27.2487 95.1428 26.894V31.696H93.1828V20.244H95.1428V21.364ZM99.2448 24.094C99.2448 23.6273 99.1468 23.226 98.9508 22.89C98.7641 22.5447 98.5121 22.2833 98.1948 22.106C97.8868 21.9287 97.5508 21.84 97.1868 21.84C96.8321 21.84 96.4961 21.9333 96.1788 22.12C95.8708 22.2973 95.6188 22.5587 95.4228 22.904C95.2361 23.2493 95.1428 23.6553 95.1428 24.122C95.1428 24.5887 95.2361 24.9947 95.4228 25.34C95.6188 25.6853 95.8708 25.9513 96.1788 26.138C96.4961 26.3153 96.8321 26.404 97.1868 26.404C97.5508 26.404 97.8868 26.3107 98.1948 26.124C98.5121 25.9373 98.7641 25.6713 98.9508 25.326C99.1468 24.9807 99.2448 24.57 99.2448 24.094ZM109.381 28.098C108.7 28.098 108.084 27.9813 107.533 27.748C106.992 27.5147 106.562 27.1787 106.245 26.74C105.928 26.3013 105.764 25.7833 105.755 25.186H107.855C107.883 25.5873 108.023 25.9047 108.275 26.138C108.536 26.3713 108.891 26.488 109.339 26.488C109.796 26.488 110.156 26.3807 110.417 26.166C110.678 25.942 110.809 25.6527 110.809 25.298C110.809 25.0087 110.72 24.7707 110.543 24.584C110.366 24.3973 110.142 24.2527 109.871 24.15C109.61 24.038 109.246 23.9167 108.779 23.786C108.144 23.5993 107.626 23.4173 107.225 23.24C106.833 23.0533 106.492 22.778 106.203 22.414C105.923 22.0407 105.783 21.546 105.783 20.93C105.783 20.3513 105.928 19.8473 106.217 19.418C106.506 18.9887 106.912 18.662 107.435 18.438C107.958 18.2047 108.555 18.088 109.227 18.088C110.235 18.088 111.052 18.3353 111.677 18.83C112.312 19.3153 112.662 19.9967 112.727 20.874H110.571C110.552 20.538 110.408 20.2627 110.137 20.048C109.876 19.824 109.526 19.712 109.087 19.712C108.704 19.712 108.396 19.81 108.163 20.006C107.939 20.202 107.827 20.4867 107.827 20.86C107.827 21.1213 107.911 21.3407 108.079 21.518C108.256 21.686 108.471 21.826 108.723 21.938C108.984 22.0407 109.348 22.162 109.815 22.302C110.45 22.4887 110.968 22.6753 111.369 22.862C111.77 23.0487 112.116 23.3287 112.405 23.702C112.694 24.0753 112.839 24.5653 112.839 25.172C112.839 25.6947 112.704 26.18 112.433 26.628C112.162 27.076 111.766 27.4353 111.243 27.706C110.72 27.9673 110.1 28.098 109.381 28.098ZM116.82 21.854V25.606C116.82 25.8673 116.881 26.0587 117.002 26.18C117.133 26.292 117.348 26.348 117.646 26.348H118.556V28H117.324C115.672 28 114.846 27.1973 114.846 25.592V21.854H113.922V20.244H114.846V18.326H116.82V20.244H118.556V21.854H116.82ZM123.41 28.126C122.663 28.126 121.991 27.9627 121.394 27.636C120.797 27.3 120.325 26.8287 119.98 26.222C119.644 25.6153 119.476 24.9153 119.476 24.122C119.476 23.3287 119.649 22.6287 119.994 22.022C120.349 21.4153 120.829 20.9487 121.436 20.622C122.043 20.286 122.719 20.118 123.466 20.118C124.213 20.118 124.889 20.286 125.496 20.622C126.103 20.9487 126.579 21.4153 126.924 22.022C127.279 22.6287 127.456 23.3287 127.456 24.122C127.456 24.9153 127.274 25.6153 126.91 26.222C126.555 26.8287 126.07 27.3 125.454 27.636C124.847 27.9627 124.166 28.126 123.41 28.126ZM123.41 26.418C123.765 26.418 124.096 26.334 124.404 26.166C124.721 25.9887 124.973 25.7273 125.16 25.382C125.347 25.0367 125.44 24.6167 125.44 24.122C125.44 23.3847 125.244 22.82 124.852 22.428C124.469 22.0267 123.998 21.826 123.438 21.826C122.878 21.826 122.407 22.0267 122.024 22.428C121.651 22.82 121.464 23.3847 121.464 24.122C121.464 24.8593 121.646 25.4287 122.01 25.83C122.383 26.222 122.85 26.418 123.41 26.418ZM130.854 21.448C131.106 21.0373 131.432 20.7153 131.834 20.482C132.244 20.2487 132.711 20.132 133.234 20.132V22.19H132.716C132.1 22.19 131.633 22.3347 131.316 22.624C131.008 22.9133 130.854 23.4173 130.854 24.136V28H128.894V20.244H130.854V21.448ZM141.764 23.954C141.764 24.234 141.745 24.486 141.708 24.71H136.038C136.085 25.27 136.281 25.7087 136.626 26.026C136.971 26.3433 137.396 26.502 137.9 26.502C138.628 26.502 139.146 26.1893 139.454 25.564H141.568C141.344 26.3107 140.915 26.9267 140.28 27.412C139.645 27.888 138.866 28.126 137.942 28.126C137.195 28.126 136.523 27.9627 135.926 27.636C135.338 27.3 134.876 26.8287 134.54 26.222C134.213 25.6153 134.05 24.9153 134.05 24.122C134.05 23.3193 134.213 22.6147 134.54 22.008C134.867 21.4013 135.324 20.9347 135.912 20.608C136.5 20.2813 137.177 20.118 137.942 20.118C138.679 20.118 139.337 20.2767 139.916 20.594C140.504 20.9113 140.957 21.364 141.274 21.952C141.601 22.5307 141.764 23.198 141.764 23.954ZM139.734 23.394C139.725 22.89 139.543 22.4887 139.188 22.19C138.833 21.882 138.399 21.728 137.886 21.728C137.401 21.728 136.99 21.8773 136.654 22.176C136.327 22.4653 136.127 22.8713 136.052 23.394H139.734Z" fill="#002E67"/>
<path d="M45.8097 25.9202L51.9197 14.8832C52.0037 14.7312 52.0877 14.5812 52.1637 14.4242C52.2327 14.2822 52.2907 14.1392 52.3287 13.9842C52.4087 13.6582 52.3867 13.3182 52.2627 13.0072C52.1423 12.7008 51.9245 12.4425 51.6427 12.2722C51.3663 12.1048 51.0411 12.0368 50.7207 12.0792C50.4007 12.1222 50.1077 12.2732 49.8767 12.5092C49.7667 12.6192 49.6767 12.7442 49.5937 12.8772C49.5017 13.0232 49.4187 13.1752 49.3347 13.3272L48.9487 14.0242L48.5617 13.3262C48.4777 13.1752 48.3947 13.0232 48.3027 12.8772C48.2217 12.7445 48.1268 12.6209 48.0197 12.5082C47.7943 12.2748 47.4972 12.1237 47.1757 12.0792C46.8557 12.037 46.5309 12.1051 46.2547 12.2722C45.973 12.4425 45.7552 12.7008 45.6347 13.0072C45.5112 13.318 45.4881 13.6596 45.5687 13.9842C45.6067 14.1392 45.6647 14.2822 45.7327 14.4242C45.8087 14.5812 45.8927 14.7312 45.9767 14.8832L47.2247 17.1372L42.3627 25.9192H39.0307C38.8627 25.9192 38.6947 25.9192 38.5277 25.9292C38.3757 25.9382 38.2277 25.9572 38.0797 26.0002C37.7697 26.0902 37.4977 26.2802 37.3017 26.5482C37.1058 26.8179 37.0002 27.1427 37 27.476C36.9998 27.8094 37.1051 28.1343 37.3007 28.4042C37.4977 28.6722 37.7687 28.8612 38.0797 28.9522C38.2277 28.9952 38.3757 29.0142 38.5277 29.0232C38.6947 29.0332 38.8627 29.0332 39.0307 29.0332H52.1277C52.1675 28.9457 52.2009 28.8555 52.2277 28.7632C52.6427 27.3472 51.6117 25.9192 50.1927 25.9192L45.8097 25.9202ZM40.1137 29.5422L39.3217 31.0422C39.2397 31.1982 39.1567 31.3522 39.0827 31.5132C39.0145 31.6581 38.9609 31.8096 38.9227 31.9652C38.8425 32.2983 38.8648 32.648 38.9867 32.9682C39.1077 33.2862 39.3207 33.5512 39.5937 33.7232C39.8667 33.8952 40.1827 33.9652 40.4947 33.9202C40.8087 33.8762 41.0947 33.7222 41.3207 33.4802C41.4287 33.3652 41.5167 33.2382 41.5987 33.1022C41.6887 32.9522 41.7697 32.7962 41.8517 32.6402L43.0007 30.4642C42.9107 30.3142 42.0537 28.9942 40.1137 29.5422ZM60.6997 26.5362C60.5068 26.2751 60.2329 26.0853 59.9207 25.9962C59.7746 25.9556 59.6243 25.9318 59.4727 25.9252C59.3047 25.9152 59.1377 25.9152 58.9697 25.9152H55.6487L51.2587 18.1002C50.6825 18.7048 50.3068 19.4723 50.1827 20.2982C50.0216 21.3312 50.214 22.3883 50.7287 23.2982L56.0027 32.6912C56.0867 32.8412 56.1697 32.9912 56.2617 33.1352C56.3457 33.2652 56.4357 33.3882 56.5447 33.4992C56.7757 33.7312 57.0687 33.8792 57.3897 33.9222C57.7107 33.9652 58.0327 33.8982 58.3117 33.7322C58.5923 33.5644 58.8104 33.3094 58.9327 33.0062C59.0577 32.6992 59.0787 32.3642 58.9987 32.0422C58.9592 31.8921 58.9039 31.7466 58.8337 31.6082C58.7587 31.4532 58.6737 31.3052 58.5897 31.1552L57.3737 28.9892H58.9697C59.1377 28.9892 59.3047 28.9892 59.4727 28.9802C59.6247 28.9712 59.7727 28.9522 59.9207 28.9102C60.2334 28.8211 60.5077 28.6308 60.7007 28.3692C60.8962 28.1038 61.0013 27.7828 61.0007 27.4532C61.0013 27.1236 60.8962 26.8026 60.7007 26.5372" fill="#002E67"/>
</svg>
