<svg width="181" height="46" viewBox="0 0 181 46" fill="none" xmlns="http://www.w3.org/2000/svg">
<rect width="181" height="46" rx="10" fill="white"/>
<path d="M80.799 21.252C80.799 21.7747 80.673 22.2647 80.421 22.722C80.1784 23.1793 79.791 23.548 79.259 23.828C78.7364 24.108 78.0737 24.248 77.271 24.248H75.633V28H73.673V18.228H77.271C78.027 18.228 78.671 18.3587 79.203 18.62C79.735 18.8813 80.1317 19.2407 80.393 19.698C80.6637 20.1553 80.799 20.6733 80.799 21.252ZM77.187 22.666C77.7284 22.666 78.1297 22.5447 78.391 22.302C78.6524 22.05 78.783 21.7 78.783 21.252C78.783 20.3 78.251 19.824 77.187 19.824H75.633V22.666H77.187ZM84.1506 17.64V28H82.1906V17.64H84.1506ZM85.5831 24.094C85.5831 23.31 85.7371 22.6147 86.0451 22.008C86.3624 21.4013 86.7871 20.9347 87.3191 20.608C87.8604 20.2813 88.4624 20.118 89.1251 20.118C89.7038 20.118 90.2078 20.2347 90.6371 20.468C91.0758 20.7013 91.4258 20.9953 91.6871 21.35V20.244H93.6611V28H91.6871V26.866C91.4351 27.23 91.0851 27.5333 90.6371 27.776C90.1984 28.0093 89.6898 28.126 89.1111 28.126C88.4578 28.126 87.8604 27.958 87.3191 27.622C86.7871 27.286 86.3624 26.8147 86.0451 26.208C85.7371 25.592 85.5831 24.8873 85.5831 24.094ZM91.6871 24.122C91.6871 23.646 91.5938 23.24 91.4071 22.904C91.2204 22.5587 90.9684 22.2973 90.6511 22.12C90.3338 21.9333 89.9931 21.84 89.6291 21.84C89.2651 21.84 88.9291 21.9287 88.6211 22.106C88.3131 22.2833 88.0611 22.5447 87.8651 22.89C87.6784 23.226 87.5851 23.6273 87.5851 24.094C87.5851 24.5607 87.6784 24.9713 87.8651 25.326C88.0611 25.6713 88.3131 25.9373 88.6211 26.124C88.9384 26.3107 89.2744 26.404 89.6291 26.404C89.9931 26.404 90.3338 26.3153 90.6511 26.138C90.9684 25.9513 91.2204 25.69 91.4071 25.354C91.5938 25.0087 91.6871 24.598 91.6871 24.122ZM102.995 20.244L98.1934 31.668H96.1074L97.7874 27.804L94.6794 20.244H96.8774L98.8794 25.662L100.909 20.244H102.995ZM110.762 28.098C110.081 28.098 109.465 27.9813 108.914 27.748C108.373 27.5147 107.943 27.1787 107.626 26.74C107.309 26.3013 107.145 25.7833 107.136 25.186H109.236C109.264 25.5873 109.404 25.9047 109.656 26.138C109.917 26.3713 110.272 26.488 110.72 26.488C111.177 26.488 111.537 26.3807 111.798 26.166C112.059 25.942 112.19 25.6527 112.19 25.298C112.19 25.0087 112.101 24.7707 111.924 24.584C111.747 24.3973 111.523 24.2527 111.252 24.15C110.991 24.038 110.627 23.9167 110.16 23.786C109.525 23.5993 109.007 23.4173 108.606 23.24C108.214 23.0533 107.873 22.778 107.584 22.414C107.304 22.0407 107.164 21.546 107.164 20.93C107.164 20.3513 107.309 19.8473 107.598 19.418C107.887 18.9887 108.293 18.662 108.816 18.438C109.339 18.2047 109.936 18.088 110.608 18.088C111.616 18.088 112.433 18.3353 113.058 18.83C113.693 19.3153 114.043 19.9967 114.108 20.874H111.952C111.933 20.538 111.789 20.2627 111.518 20.048C111.257 19.824 110.907 19.712 110.468 19.712C110.085 19.712 109.777 19.81 109.544 20.006C109.32 20.202 109.208 20.4867 109.208 20.86C109.208 21.1213 109.292 21.3407 109.46 21.518C109.637 21.686 109.852 21.826 110.104 21.938C110.365 22.0407 110.729 22.162 111.196 22.302C111.831 22.4887 112.349 22.6753 112.75 22.862C113.151 23.0487 113.497 23.3287 113.786 23.702C114.075 24.0753 114.22 24.5653 114.22 25.172C114.22 25.6947 114.085 26.18 113.814 26.628C113.543 27.076 113.147 27.4353 112.624 27.706C112.101 27.9673 111.481 28.098 110.762 28.098ZM118.201 21.854V25.606C118.201 25.8673 118.262 26.0587 118.383 26.18C118.514 26.292 118.728 26.348 119.027 26.348H119.937V28H118.705C117.053 28 116.227 27.1973 116.227 25.592V21.854H115.303V20.244H116.227V18.326H118.201V20.244H119.937V21.854H118.201ZM124.791 28.126C124.044 28.126 123.372 27.9627 122.775 27.636C122.178 27.3 121.706 26.8287 121.361 26.222C121.025 25.6153 120.857 24.9153 120.857 24.122C120.857 23.3287 121.03 22.6287 121.375 22.022C121.73 21.4153 122.21 20.9487 122.817 20.622C123.424 20.286 124.1 20.118 124.847 20.118C125.594 20.118 126.27 20.286 126.877 20.622C127.484 20.9487 127.96 21.4153 128.305 22.022C128.66 22.6287 128.837 23.3287 128.837 24.122C128.837 24.9153 128.655 25.6153 128.291 26.222C127.936 26.8287 127.451 27.3 126.835 27.636C126.228 27.9627 125.547 28.126 124.791 28.126ZM124.791 26.418C125.146 26.418 125.477 26.334 125.785 26.166C126.102 25.9887 126.354 25.7273 126.541 25.382C126.728 25.0367 126.821 24.6167 126.821 24.122C126.821 23.3847 126.625 22.82 126.233 22.428C125.85 22.0267 125.379 21.826 124.819 21.826C124.259 21.826 123.788 22.0267 123.405 22.428C123.032 22.82 122.845 23.3847 122.845 24.122C122.845 24.8593 123.027 25.4287 123.391 25.83C123.764 26.222 124.231 26.418 124.791 26.418ZM132.235 21.448C132.487 21.0373 132.813 20.7153 133.215 20.482C133.625 20.2487 134.092 20.132 134.615 20.132V22.19H134.097C133.481 22.19 133.014 22.3347 132.697 22.624C132.389 22.9133 132.235 23.4173 132.235 24.136V28H130.275V20.244H132.235V21.448ZM143.145 23.954C143.145 24.234 143.126 24.486 143.089 24.71H137.419C137.465 25.27 137.661 25.7087 138.007 26.026C138.352 26.3433 138.777 26.502 139.281 26.502C140.009 26.502 140.527 26.1893 140.835 25.564H142.949C142.725 26.3107 142.295 26.9267 141.661 27.412C141.026 27.888 140.247 28.126 139.323 28.126C138.576 28.126 137.904 27.9627 137.307 27.636C136.719 27.3 136.257 26.8287 135.921 26.222C135.594 25.6153 135.431 24.9153 135.431 24.122C135.431 23.3193 135.594 22.6147 135.921 22.008C136.247 21.4013 136.705 20.9347 137.293 20.608C137.881 20.2813 138.557 20.118 139.323 20.118C140.06 20.118 140.718 20.2767 141.297 20.594C141.885 20.9113 142.337 21.364 142.655 21.952C142.981 22.5307 143.145 23.198 143.145 23.954ZM141.115 23.394C141.105 22.89 140.923 22.4887 140.569 22.19C140.214 21.882 139.78 21.728 139.267 21.728C138.781 21.728 138.371 21.8773 138.035 22.176C137.708 22.4653 137.507 22.8713 137.433 23.394H141.115Z" fill="#002E67"/>
<path d="M40.6373 15.4338L49.3773 24.0048L40.7023 32.6548C40.5604 32.47 40.4502 32.2628 40.3763 32.0418C40.3381 31.7916 40.3381 31.5371 40.3763 31.2868V16.5668C40.3503 16.1718 40.4413 15.7768 40.6363 15.4338M53.1423 20.2668L50.2893 23.0928L41.6533 14.5998C41.9333 14.5028 42.2333 14.4758 42.5263 14.5218C42.9863 14.6478 43.4253 14.8418 43.8283 15.0948L51.6443 19.4198C52.1523 19.6928 52.6473 19.9798 53.1423 20.2668ZM50.2903 24.9298L53.1293 27.7178L51.0713 28.8638L44.7923 32.3538C44.2723 32.6408 43.7503 32.9148 43.2423 33.2278C43.025 33.3632 42.7812 33.4506 42.5274 33.4842C42.2735 33.5178 42.0154 33.4969 41.7703 33.4228L50.2903 24.9298ZM57.6503 24.0048C57.6576 24.3545 57.5693 24.6995 57.3948 25.0027C57.2203 25.3058 56.9663 25.5555 56.6603 25.7248L54.3143 27.0268L51.2273 24.0048L54.3273 20.9308C55.1223 21.3738 55.9043 21.8168 56.6853 22.2338C56.9968 22.4079 57.2526 22.6666 57.4232 22.98C57.5938 23.2934 57.6732 23.6487 57.6503 24.0048Z" fill="#002E67"/>
</svg>
